<svg width="200" height="200" viewBox="0 0 200 200" fill="none" xmlns="http://www.w3.org/2000/svg">
<mask id="mask0_114_55217" style="mask-type:luminance" maskUnits="userSpaceOnUse" x="0" y="0" width="200" height="200">
<path fill-rule="evenodd" clip-rule="evenodd" d="M200 0H0V200H200V0Z" fill="white"/>
</mask>
<g mask="url(#mask0_114_55217)">
<path fill-rule="evenodd" clip-rule="evenodd" d="M99.9996 200C155.228 200 200 155.228 200 100C200 44.7711 155.228 0 99.9996 0C44.7717 0 0 44.7711 0 100C0 155.228 44.7717 200 99.9996 200Z" fill="#483FDD"/>
</g>
<path fill-rule="evenodd" clip-rule="evenodd" d="M88.5432 150.31C88.5432 155.823 92.9324 160.291 98.3467 160.291C103.76 160.291 108.149 155.823 108.149 150.31C108.149 144.798 103.76 140.329 98.3467 140.329C92.9324 140.329 88.5432 144.798 88.5432 150.31Z" fill="white"/>
<path fill-rule="evenodd" clip-rule="evenodd" d="M48.298 72.7036L50.8591 70.136L50.855 70.1325C50.9622 70.0255 51.0715 69.9234 51.178 69.817C63.34 57.7874 78.936 51.348 94.7782 50.4966C97.19 50.367 99.6087 50.367 102.021 50.4966C117.859 51.3473 133.45 57.7846 145.611 69.8079C145.721 69.9163 145.834 70.0219 145.944 70.1325L145.94 70.136L148.501 72.7036C151.345 75.5536 151.345 80.2177 148.501 83.0684L132.988 98.6149C132.903 98.71 132.823 98.8072 132.733 98.8987L103.584 128.112C102.158 129.54 100.278 130.252 98.3997 130.249C96.5205 130.252 94.6406 129.54 93.2151 128.112L64.0669 98.8987C63.977 98.8086 63.8981 98.7121 63.8137 98.6177L48.298 83.0684C45.4539 80.2177 45.4539 75.5536 48.298 72.7036Z" fill="#5CD6C0"/>
<path fill-rule="evenodd" clip-rule="evenodd" d="M48.298 72.7036L50.8591 70.136L50.855 70.1325C50.9622 70.0255 51.0715 69.9234 51.178 69.817C63.34 57.7874 78.936 51.348 94.7782 50.4966C97.19 50.367 99.6087 50.367 102.021 50.4966C117.859 51.3473 133.45 57.7846 145.611 69.8079C145.721 69.9163 145.834 70.0219 145.944 70.1325L145.94 70.136L148.501 72.7036C151.345 75.5536 151.345 80.2177 148.501 83.0684L132.988 98.6149C132.903 98.71 132.823 98.8072 132.733 98.8987L103.584 128.112C102.158 129.54 100.278 130.252 98.3997 130.249C96.5205 130.252 94.6406 129.54 93.2151 128.112L64.0669 98.8987C63.977 98.8086 63.8981 98.7121 63.8137 98.6177L48.298 83.0684C45.4539 80.2177 45.4539 75.5536 48.298 72.7036Z" fill="#5CD6C0"/>
<mask id="mask1_114_55217" style="mask-type:luminance" maskUnits="userSpaceOnUse" x="46" y="50" width="104" height="83">
<path fill-rule="evenodd" clip-rule="evenodd" d="M101.965 50.5086C117.567 51.379 132.928 57.9656 144.909 70.2669C145.017 70.3785 145.128 70.4873 145.236 70.5997L145.232 70.6034L147.755 73.2305C150.558 76.1466 150.558 80.9188 147.755 83.8356L132.473 99.7424C132.388 99.8397 132.31 99.9399 132.221 100.033L103.505 129.923C102.1 131.385 100.248 132.113 98.3971 132.11C96.5458 132.113 94.6937 131.385 93.2901 129.923L64.5735 100.033C64.4849 99.9413 64.4073 99.8419 64.3241 99.7453L49.0385 83.8356C46.2366 80.9188 46.2366 76.1466 49.0385 73.2305L51.5617 70.6034L51.5583 70.5997C51.6632 70.4902 51.7709 70.3857 51.8758 70.2777C63.8574 57.9692 79.2221 51.3798 94.8293 50.5086C96.0177 50.4423 97.2074 50.4092 98.3971 50.4092C99.5868 50.4092 100.777 50.4423 101.965 50.5086Z" fill="white"/>
</mask>
<g mask="url(#mask1_114_55217)">
<path fill-rule="evenodd" clip-rule="evenodd" d="M55.1095 88.5781L57.3227 86.2745L57.3193 86.2708C57.4113 86.175 57.506 86.0828 57.598 85.9877C68.1057 75.1938 81.5816 69.4143 95.2687 68.6505C97.353 68.5345 99.4422 68.5345 101.527 68.6505C115.21 69.4135 128.681 75.1902 139.188 85.979C139.283 86.0763 139.381 86.1714 139.475 86.2708L139.472 86.2745L141.685 88.5781C144.142 91.1353 144.142 95.3195 141.685 97.8775L128.282 111.83C128.208 111.914 128.14 112.002 128.061 112.084L102.877 138.298C101.645 139.579 100.021 140.218 98.3969 140.215C96.7739 140.218 95.1501 139.579 93.9181 138.298L68.7339 112.084C68.6563 112.002 68.5874 111.916 68.5152 111.831L55.1095 97.8775C52.6531 95.3195 52.6531 91.1353 55.1095 88.5781Z" fill="white"/>
</g>
<mask id="mask2_114_55217" style="mask-type:luminance" maskUnits="userSpaceOnUse" x="46" y="50" width="104" height="83">
<path fill-rule="evenodd" clip-rule="evenodd" d="M101.965 50.5086C117.567 51.379 132.928 57.9656 144.909 70.2669C145.017 70.3785 145.128 70.4873 145.236 70.5997L145.232 70.6034L147.755 73.2305C150.558 76.1466 150.558 80.9188 147.755 83.8356L132.473 99.7424C132.388 99.8397 132.31 99.9399 132.221 100.033L103.505 129.923C102.1 131.385 100.248 132.113 98.3971 132.11C96.5458 132.113 94.6937 131.385 93.2901 129.923L64.5735 100.033C64.4849 99.9413 64.4073 99.8419 64.3241 99.7453L49.0385 83.8356C46.2366 80.9188 46.2366 76.1466 49.0385 73.2305L51.5617 70.6034L51.5583 70.5997C51.6632 70.4902 51.7709 70.3857 51.8758 70.2777C63.8574 57.9692 79.2221 51.3798 94.8293 50.5086C96.0177 50.4423 97.2074 50.4092 98.3971 50.4092C99.5868 50.4092 100.777 50.4423 101.965 50.5086Z" fill="white"/>
</mask>
<g mask="url(#mask2_114_55217)">
<path fill-rule="evenodd" clip-rule="evenodd" d="M67.6955 103.593L69.2654 101.958L69.2627 101.956C69.3281 101.888 69.3948 101.823 69.4603 101.756C76.9126 94.0992 86.4705 90.0007 96.1783 89.4596C97.6569 89.3767 99.1389 89.3767 100.616 89.4596C110.322 90.0007 119.876 94.0971 127.329 101.749C127.396 101.819 127.465 101.886 127.532 101.956L127.53 101.958L129.099 103.593C130.842 105.407 130.842 108.375 129.099 110.188L119.593 120.084C119.541 120.144 119.493 120.207 119.437 120.265L101.574 138.856C100.701 139.766 99.5491 140.219 98.3976 140.217C97.246 140.219 96.0945 139.766 95.2209 138.856L77.3589 120.265C77.3037 120.207 77.2547 120.146 77.2029 120.086L67.6955 110.188C65.9525 108.375 65.9525 105.407 67.6955 103.593Z" fill="#5CD6C0"/>
</g>
</svg>
