<svg width="200" height="200" viewBox="0 0 200 200" fill="none" xmlns="http://www.w3.org/2000/svg">
<mask id="mask0_114_55261" style="mask-type:luminance" maskUnits="userSpaceOnUse" x="0" y="0" width="200" height="200">
<path fill-rule="evenodd" clip-rule="evenodd" d="M200 0H0V200H200V0Z" fill="white"/>
</mask>
<g mask="url(#mask0_114_55261)">
<path fill-rule="evenodd" clip-rule="evenodd" d="M0 100C0 155.228 44.7717 200 99.9996 200C155.228 200 200 155.228 200 100C200 44.7711 155.228 0 99.9996 0C44.7717 0 0 44.7711 0 100Z" fill="#483FDD"/>
</g>
<path fill-rule="evenodd" clip-rule="evenodd" d="M150 111.971C150 117.173 145.838 121.429 140.751 121.429H59.2491C54.1621 121.429 50 117.173 50 111.971V59.4574C50 54.2558 54.1621 50 59.2491 50H140.751C145.838 50 150 54.2558 150 59.4574V111.971Z" fill="#5CD6C0"/>
<path fill-rule="evenodd" clip-rule="evenodd" d="M151.548 132.144H122.699C122.255 132.144 121.857 132.332 121.583 132.632C121.257 132.954 117.574 136.459 110.242 138.366C107.055 139.193 103.61 139.614 100.001 139.614C96.3672 139.614 92.9019 139.189 89.6985 138.349C82.0864 136.357 78.4278 132.643 78.3949 132.609C78.1122 132.312 77.715 132.144 77.2985 132.144H48.4527C43.3978 132.144 39.2861 136.148 39.2861 141.073C39.2861 145.996 43.3978 150.001 48.4527 150.001H151.548C156.602 150.001 160.715 145.996 160.715 141.073C160.715 136.148 156.602 132.144 151.548 132.144Z" fill="white"/>
</svg>
